<svg width="219" height="96" viewBox="0 0 219 96" fill="none" xmlns="http://www.w3.org/2000/svg">
  <rect width="219" height="96" fill="#131921"/>
  <text x="12" y="48" fill="white" font-family="Arial, Helvetica, sans-serif" font-size="34" font-weight="700" letter-spacing="-1.5">amazon</text>
  <text x="145" y="48" fill="white" font-family="Arial, Helvetica, sans-serif" font-size="19" font-weight="700">.in</text>
  <path d="M30 58C45 73 84 82 118 79C131 78 143 75 153 70" stroke="white" stroke-width="5.5" stroke-linecap="round"/>
  <path d="M29 56C45 66 73 72 100 72C117 72 135 69 149 63.5C151.5 62.5 153.5 65 151 66.6C137.5 75.4 115 81 95.5 81C68.5 81 44 71.8 28.6 58.3C27.2 57.1 27.7 54.9 29 56Z" fill="white"/>
  <text x="111" y="82" fill="#2F9CF4" font-family="Arial, Helvetica, sans-serif" font-size="25" font-weight="700">prime</text>
</svg>
